<?xml version="1.0" standalone="no"?>
<svg xmlns="http://www.w3.org/2000/svg" viewBox="0 0 186.648 29" width="186.648" height="29"><g fill="#000000" color="#000000" transform="translate(0, 0) scale(0.8055556)"><svg width="36.0" height="36.0" x="0.0" y="0.0" viewBox="0 0 36 36"><g transform="translate(0,-1016.3622)"><g transform="translate(531.99936,-196.49874)"><path d="m -513.50959,1237.8622 0,4 14.02836,0 0,-4" style="" fill="none" stroke="none"></path><path style="" d="m -522.55064,1237.8622 0,4 6.0225,0 0,-4" fill="none" stroke="none"></path><path style="text-indent:0;text-transform:none;direction:ltr;block-progression:tb;baseline-shift:baseline;color:#000000;enable-background:accumulate;" d="m 571.21484,542.21094 0,1.02148 2.5,0 c 0.27613,3e-5 0.49997,0.22387 0.5,0.5 l 0,3.91016 0,3.13867 0,3.92969 0,4 0,0.002 0,8.49805 1,0 0,-5.5 0,-15 c -4.1e-4,-0.0118 -4.1e-4,-0.0235 0,-0.0352 l 0,-2.59961 0,-1.86523 -1.5,0 z m 5,5 0,14 25,0 0,-14 z m -4,0.93164 0,2.13867 1,0 0,-2.13867 z m 11,0.0684 c 2.45856,0 4.57427,1.48944 5.5,3.61133 0.92576,-2.12185 3.04148,-3.61133 5.5,-3.61133 3.30779,0 6.00001,2.6922 6,6 10e-6,3.3078 -2.69221,6 -6,6 -2.45845,0 -4.5742,-1.48762 -5.5,-3.60938 -0.92577,2.1218 -3.0415,3.60938 -5.5,3.60938 -3.30778,0 -6.00001,-2.6922 -6,-6 -10e-6,-3.3078 2.69222,-6 6,-6 z m -5.53515,0.002 c 0.0117,-4.1e-4 0.0234,-4.1e-4 0.0351,0 0.27614,0 0.5,0.22386 0.5,0.5 0,0.27614 -0.22386,0.5 -0.5,0.5 -0.27614,0 -0.5,-0.22386 -0.5,-0.5 -6.5e-4,-0.26298 0.20252,-0.4815 0.46485,-0.5 z m 22,0 c 0.0117,-4.1e-4 0.0234,-4.1e-4 0.0351,0 0.27614,0 0.5,0.22386 0.5,0.5 0,0.27614 -0.22386,0.5 -0.5,0.5 -0.27614,0 -0.5,-0.22386 -0.5,-0.5 -6.5e-4,-0.26298 0.20252,-0.4815 0.46485,-0.5 z m -16.46485,0.99805 c -2.76734,0 -5.00001,2.2327 -5,5 -10e-6,2.7674 2.23266,5 5,5 2.76734,0 5.00001,-2.2326 5,-5 10e-6,-2.7673 -2.23266,-5 -5,-5 z m 11,0 c -2.76734,0 -5.00001,2.2327 -5,5 -10e-6,2.7674 2.23266,5 5,5 2.76734,0 5.00001,-2.2326 5,-5 10e-6,-2.7673 -2.23266,-5 -5,-5 z m -10.43554,0.5664 c 0.2464,0 0.49403,0.0102 0.71484,0.0332 0.22081,0.0232 0.39289,0.0369 0.60938,0.14062 0.005,0.003 0.0106,0.007 0.0156,0.01 0.10857,0.0569 0.24776,0.19657 0.28906,0.35937 0.0415,0.1627 0.002,0.2901 -0.0312,0.3711 -0.0662,0.1628 -0.13753,0.23245 -0.21093,0.31445 -0.1467,0.165 -0.32265,0.33083 -0.49219,0.51953 -0.16953,0.1887 -0.32561,0.39378 -0.41211,0.58008 -0.0642,0.13933 -0.0812,0.2558 -0.0742,0.37109 0.2917,0.16505 0.53874,0.39652 0.7168,0.67969 0.46651,-0.16382 0.9097,-0.27072 1.30664,-0.26172 0.5012,0.007 0.99713,0.17282 1.24804,0.60742 0.13795,0.239 0.13275,0.39037 0.15625,0.60547 0.0235,0.2151 0.0352,0.45868 0.0352,0.70508 0,0.2464 -0.012,0.49414 -0.0352,0.71484 -0.0232,0.2208 -0.0354,0.39123 -0.13867,0.60743 -0.003,0.006 -0.005,0.0116 -0.008,0.0176 -0.057,0.1086 -0.19859,0.24611 -0.36133,0.28711 -0.16274,0.042 -0.28969,0.004 -0.37109,-0.0293 -0.16273,-0.0662 -0.23,-0.13794 -0.3125,-0.21094 -0.16503,-0.1467 -0.33083,-0.32259 -0.51953,-0.49219 -0.18869,-0.1695 -0.3938,-0.32511 -0.58008,-0.41211 -0.14949,-0.0693 -0.2729,-0.0857 -0.39649,-0.0723 -0.15689,0.26365 -0.36705,0.492 -0.62304,0.66015 0.16791,0.47674 0.27553,0.92739 0.26953,1.32422 -0.007,0.5018 -0.17044,0.9987 -0.60547,1.25 -0.23894,0.1382 -0.39231,0.1342 -0.60742,0.1582 -0.2151,0.023 -0.45865,0.0332 -0.70508,0.0332 -0.24644,0 -0.49411,-0.0102 -0.71484,-0.0332 -0.22073,-0.0232 -0.39128,-0.0373 -0.60743,-0.14062 -0.006,-0.003 -0.0116,-0.007 -0.0176,-0.01 -0.10857,-0.0569 -0.24581,-0.19862 -0.28711,-0.36132 -0.0413,-0.1627 -0.004,-0.28814 0.0293,-0.36914 0.0662,-0.16283 0.13754,-0.23246 0.21094,-0.31446 0.1467,-0.165 0.3246,-0.33083 0.49414,-0.51953 0.16954,-0.1887 0.32356,-0.39378 0.41016,-0.58008 0.0644,-0.13853 0.0822,-0.25449 0.0762,-0.36914 -0.27413,-0.15314 -0.51323,-0.36251 -0.68945,-0.62109 -0.48307,0.17219 -0.93886,0.28339 -1.33985,0.27539 -0.50185,-0.007 -0.99682,-0.17242 -1.24804,-0.60742 -0.13801,-0.239 -0.13471,-0.39037 -0.15821,-0.60547 -0.0232,-0.2151 -0.0332,-0.45858 -0.0332,-0.70508 0,-0.2464 0.01,-0.49414 0.0332,-0.71484 0.0232,-0.2207 0.0355,-0.39133 0.13867,-0.60743 0.005,-0.009 0.009,-0.0174 0.0137,-0.0254 0.0156,-0.029 0.025,-0.0209 0.0449,-0.0449 0.0432,-0.0734 0.10433,-0.13463 0.17773,-0.17773 0.0414,-0.0245 0.0861,-0.043 0.13282,-0.0547 l 0,-0.002 c 0.30514,-0.0775 0.44135,0.0531 0.53515,0.11914 0.0938,0.0655 0.16354,0.13208 0.24024,0.20508 0.15345,0.1457 0.32011,0.3156 0.5,0.4707 0.30595,0.26379 0.59827,0.42583 0.85937,0.42383 0.16051,-0.29981 0.38805,-0.55714 0.67188,-0.74219 -0.16658,-0.47458 -0.27358,-0.9231 -0.26758,-1.31836 0.007,-0.5018 0.17234,-0.9988 0.60742,-1.25 0.23795,-0.13625 0.39048,-0.13225 0.60547,-0.15625 0.21498,-0.023 0.45844,-0.0352 0.70508,-0.0352 z m 11,0 c 0.2464,0 0.49403,0.0102 0.71484,0.0332 0.22081,0.0232 0.39288,0.0369 0.60938,0.14062 0.005,0.003 0.0106,0.007 0.0156,0.01 0.10857,0.0569 0.24581,0.19657 0.28711,0.35937 0.0413,0.1627 0.004,0.2901 -0.0293,0.3711 -0.0662,0.1628 -0.13753,0.23245 -0.21093,0.31445 -0.1467,0.165 -0.32265,0.33083 -0.49219,0.51953 -0.16953,0.1887 -0.32561,0.39378 -0.41211,0.58008 -0.0648,0.13933 -0.0815,0.2558 -0.0742,0.37109 0.2917,0.16505 0.53874,0.39652 0.7168,0.67969 0.46651,-0.16377 0.9097,-0.27106 1.30664,-0.26172 0.5012,0.007 0.99713,0.17282 1.24804,0.60742 0.13795,0.239 0.13275,0.39037 0.15625,0.60547 0.0235,0.2151 0.0352,0.45868 0.0352,0.70508 0,0.2464 -0.012,0.49414 -0.0352,0.71484 -0.0232,0.2208 -0.0354,0.39123 -0.13867,0.60743 -0.003,0.006 -0.005,0.0116 -0.008,0.0176 -0.057,0.1086 -0.19859,0.24611 -0.36133,0.28711 -0.16274,0.042 -0.28969,0.004 -0.37109,-0.0293 -0.16273,-0.0662 -0.23,-0.13794 -0.3125,-0.21094 -0.16503,-0.1467 -0.33083,-0.32259 -0.51953,-0.49219 -0.18869,-0.1695 -0.3938,-0.32511 -0.58008,-0.41211 -0.14951,-0.069 -0.27289,-0.0856 -0.39649,-0.0723 -0.15689,0.26365 -0.36705,0.492 -0.62304,0.66015 0.16791,0.47672 0.27506,0.92739 0.26953,1.32422 -0.007,0.5018 -0.17044,0.9987 -0.60547,1.25 -0.23894,0.1382 -0.39231,0.1342 -0.60742,0.1582 -0.2151,0.023 -0.45865,0.0332 -0.70508,0.0332 -0.24644,0 -0.49411,-0.0102 -0.71484,-0.0332 -0.22073,-0.0232 -0.39128,-0.0373 -0.60743,-0.14062 -0.006,-0.003 -0.0116,-0.007 -0.0176,-0.01 -0.10857,-0.0569 -0.24581,-0.19862 -0.28711,-0.36132 -0.0413,-0.1627 -0.004,-0.28814 0.0293,-0.36914 0.0662,-0.16283 0.13754,-0.23246 0.21094,-0.31446 0.1467,-0.165 0.3246,-0.33083 0.49414,-0.51953 0.16954,-0.1887 0.32356,-0.39378 0.41016,-0.58008 0.0644,-0.13853 0.0824,-0.2545 0.0762,-0.36914 -0.27413,-0.15314 -0.51323,-0.36251 -0.68945,-0.62109 -0.48308,0.17218 -0.93886,0.28338 -1.33985,0.27539 -0.50185,-0.007 -0.99682,-0.17242 -1.24804,-0.60742 -0.13801,-0.239 -0.13471,-0.39037 -0.15821,-0.60547 -0.0232,-0.2151 -0.0332,-0.45858 -0.0332,-0.70508 0,-0.2464 0.01,-0.49414 0.0332,-0.71484 0.0232,-0.2207 0.0355,-0.39133 0.13867,-0.60743 0.005,-0.009 0.009,-0.0174 0.0137,-0.0254 0.0156,-0.029 0.025,-0.0209 0.0449,-0.0449 0.0432,-0.0734 0.10433,-0.13463 0.17773,-0.17773 0.0414,-0.0245 0.0861,-0.043 0.13282,-0.0547 l 0,-0.002 c 0.0763,-0.0194 0.14211,-0.0254 0.19921,-0.0234 0.17144,0.007 0.26554,0.0931 0.33594,0.14258 0.0938,0.0655 0.16354,0.13208 0.24024,0.20508 0.15345,0.1457 0.32011,0.3156 0.5,0.4707 0.30595,0.26379 0.59827,0.42611 0.85937,0.42383 0.16078,-0.30032 0.38936,-0.55706 0.67383,-0.74219 -0.16665,-0.47469 -0.27505,-0.923 -0.26953,-1.31836 0.007,-0.5018 0.17234,-0.9988 0.60742,-1.25 0.23795,-0.13625 0.39048,-0.13225 0.60547,-0.15625 0.21498,-0.023 0.45844,-0.0352 0.70508,-0.0352 z m -11,1 0,0.002 c -0.21641,0 -0.43136,0.009 -0.59571,0.0273 -0.10575,0.0117 -0.19616,0.0409 -0.22656,0.0469 -0.027,0.0231 -0.0917,0.105 -0.0957,0.3789 -0.003,0.23182 0.11292,0.6109 0.24219,0.99024 0.0375,-0.002 0.0733,-0.0117 0.11132,-0.0117 0.0275,0 0.0529,0.007 0.0801,0.008 0.0241,-0.18216 -0.0104,-0.38447 0.0605,-0.53711 0.15401,-0.3314 0.37165,-0.60262 0.57422,-0.82812 0.026,-0.029 0.037,-0.0394 0.0625,-0.0664 -0.0741,0 -0.13739,-0.01 -0.21289,-0.01 z m 11,0 0,0.002 c -0.21641,0 -0.43136,0.009 -0.59571,0.0273 -0.10575,0.0117 -0.19616,0.0409 -0.22656,0.0469 -0.027,0.0231 -0.0917,0.105 -0.0957,0.3789 -0.003,0.23182 0.11292,0.61089 0.24219,0.99024 0.0375,-0.002 0.0733,-0.0117 0.11132,-0.0117 0.0275,0 0.0529,0.007 0.0801,0.008 0.024,-0.18215 -0.0104,-0.38447 0.0605,-0.53711 0.15401,-0.3314 0.37165,-0.60262 0.57422,-0.82812 0.026,-0.029 0.037,-0.0394 0.0625,-0.0664 -0.0741,0 -0.13739,-0.01 -0.21289,-0.01 z m -11.56446,2.4336 c -0.55821,0 -1,0.4418 -1,1 0,0.5582 0.44179,1 1,1 0.55821,0 1,-0.4418 1,-1 0,-0.5582 -0.44179,-1 -1,-1 z m 11,0 c -0.55821,0 -1,0.4418 -1,1 0,0.5582 0.44179,1 1,1 0.55821,0 1,-0.4418 1,-1 0,-0.5582 -0.44179,-1 -1,-1 z m -14.42382,0.25976 c -0.003,0.076 -0.01,0.14175 -0.01,0.21875 0,0.2167 0.009,0.43141 0.0273,0.59571 0.0115,0.1046 0.0399,0.19456 0.0469,0.22656 0.0239,0.0278 0.10642,0.0957 0.37891,0.0957 0.23298,0.003 0.61564,-0.11494 0.99609,-0.24414 -0.004,-0.051 -0.0156,-0.10034 -0.0156,-0.15234 0,-0.009 0.002,-0.0164 0.002,-0.0254 -0.50394,-0.0795 -0.95892,-0.29906 -1.27344,-0.57032 -0.0637,-0.0545 -0.0953,-0.0915 -0.15234,-0.14453 z m 11,0 c -0.003,0.076 -0.01,0.14175 -0.01,0.21875 0,0.2167 0.009,0.43141 0.0273,0.59571 0.0115,0.1046 0.0399,0.19456 0.0469,0.22656 0.0239,0.0278 0.10642,0.0957 0.37891,0.0957 0.23297,0.003 0.61564,-0.11494 0.99609,-0.24414 -0.004,-0.051 -0.0156,-0.10034 -0.0156,-0.15234 0,-0.009 0.002,-0.0167 0.002,-0.0254 -0.50392,-0.0795 -0.95893,-0.29907 -1.27344,-0.57032 -0.0637,-0.0545 -0.0953,-0.0915 -0.15234,-0.14453 z m -7.57618,0.34766 c 0.21752,1.5e-4 0.39351,0.17702 0.39258,0.39453 -1.5e-4,0.21675 -0.17583,0.39243 -0.39258,0.39258 -0.21675,-1.6e-4 -0.39242,-0.17583 -0.39257,-0.39258 -9.3e-4,-0.21751 0.17506,-0.39437 0.39257,-0.39453 z m 11,0 c 0.21752,1.5e-4 0.39351,0.17702 0.39258,0.39453 -1.5e-4,0.21675 -0.17583,0.39243 -0.39258,0.39258 -0.21675,-1.6e-4 -0.39242,-0.17583 -0.39257,-0.39258 -9.3e-4,-0.21751 0.17506,-0.39437 0.39257,-0.39453 z m -8.02539,0.0762 c -0.2245,-0.006 -0.60369,0.11067 -0.98242,0.24024 10e-4,0.0259 0.008,0.0501 0.008,0.0762 0,0.0406 -0.01,0.079 -0.0117,0.11914 0.18255,0.0267 0.38745,-0.0124 0.54102,0.0586 0.33141,0.154 0.60267,0.37162 0.82813,0.57422 0.0299,0.0259 0.0401,0.0385 0.0684,0.0644 0.003,-0.0747 0.01,-0.13884 0.01,-0.21484 0,-0.2166 -0.0114,-0.4314 -0.0293,-0.5957 -0.0114,-0.10441 -0.0399,-0.19437 -0.0469,-0.22657 -0.0237,-0.0277 -0.10599,-0.0957 -0.37891,-0.0957 z m 11,0 c -0.2245,-0.006 -0.60369,0.11067 -0.98242,0.24024 10e-4,0.0259 0.008,0.05 0.008,0.0762 0,0.0406 -0.009,0.0791 -0.0117,0.11914 0.18255,0.0267 0.38745,-0.0124 0.54102,0.0586 0.33141,0.154 0.60267,0.37162 0.82813,0.57422 0.0299,0.0259 0.0401,0.0385 0.0684,0.0644 0.003,-0.0747 0.01,-0.13884 0.01,-0.21484 0,-0.2166 -0.0114,-0.4314 -0.0293,-0.5957 -0.0114,-0.10441 -0.0399,-0.19437 -0.0469,-0.22657 -0.0237,-0.0277 -0.10599,-0.0957 -0.37891,-0.0957 z m -24.97461,1.31641 0,3 1,0 0,-3 z m 11.11719,0.98828 c -0.0396,0.003 -0.077,0.0117 -0.11719,0.0117 -0.0253,0 -0.0491,-0.007 -0.0742,-0.008 -0.0247,0.18266 0.0107,0.38589 -0.0605,0.53907 -0.154,0.3314 -0.3697,0.60262 -0.57227,0.82812 -0.026,0.029 -0.037,0.0394 -0.0625,0.0664 0.0737,0 0.13594,0.01 0.21094,0.01 0.21663,0 0.43334,-0.009 0.59766,-0.0273 0.10296,-0.0113 0.19091,-0.0399 0.22461,-0.0469 0.0267,-0.0236 0.0917,-0.10705 0.0957,-0.38086 0.003,-0.23271 -0.11227,-0.61138 -0.24219,-0.99219 z m 11,0 c -0.0396,0.002 -0.077,0.0117 -0.11719,0.0117 -0.0253,0 -0.0491,-0.007 -0.0742,-0.008 -0.0245,0.18265 0.0106,0.38589 -0.0605,0.53907 -0.154,0.3314 -0.3697,0.60262 -0.57227,0.82812 -0.026,0.029 -0.037,0.0394 -0.0625,0.0664 0.0737,0 0.13594,0.01 0.21094,0.01 0.21663,0 0.43334,-0.009 0.59766,-0.0273 0.10296,-0.0113 0.19091,-0.0399 0.22461,-0.0469 0.0267,-0.0236 0.0917,-0.10705 0.0957,-0.38086 0.003,-0.23271 -0.11227,-0.61138 -0.24219,-0.99219 z m -16.65234,3.01367 c 0.0117,-4.1e-4 0.0234,-4.1e-4 0.0351,0 0.27614,0 0.5,0.22386 0.5,0.5 0,0.27614 -0.22386,0.5 -0.5,0.5 -0.27614,0 -0.5,-0.22386 -0.5,-0.5 -6.5e-4,-0.26298 0.20252,-0.4815 0.46485,-0.5 z m 22,0 c 0.0117,-4.1e-4 0.0234,-4.1e-4 0.0351,0 0.27614,0 0.5,0.22386 0.5,0.5 0,0.27614 -0.22386,0.5 -0.5,0.5 -0.27614,0 -0.5,-0.22386 -0.5,-0.5 -6.5e-4,-0.26298 0.20252,-0.4815 0.46485,-0.5 z m -21.51563,2.99805 0,3.50026 5.02344,0 0,-3.50026 z m 9.04102,0 0,3.50026 13.0293,0 0,-3.50026 z m -7.99024,1.00195 1,0 0,1.5 -1,0 z m 2,0 1,0 0,1.5 -1,0 z m 7,0 1,0 0,1.5 -1,0 z m 1.99024,0 1,0 0,1.5 -1,0 z m 2,0 1,0 0,1.5 -1,0 z m 2,0 1,0 0,1.5 -1,0 z m 2,0 1,0 0,1.5 -1,0 z m 2,0 1,0 0,1.5 -1,0 z" transform="translate(-1100.2142,676.14997)" fill="currentColor" fill-opacity="1" fill-rule="nonzero" stroke="none" visibility="visible" display="inline" overflow="visible"></path><path style="text-indent:0;text-transform:none;direction:ltr;block-progression:tb;baseline-shift:baseline;color:#000000;enable-background:accumulate;" d="m -528.9922,1236.3613 0,1 2,0 0,-1 z" fill="currentColor" fill-opacity="1" fill-rule="evenodd" stroke="none" visibility="visible" display="inline" overflow="visible"></path><path style="text-indent:0;text-transform:none;direction:ltr;block-progression:tb;baseline-shift:baseline;color:#000000;enable-background:accumulate;" d="m -528.9922,1228.3613 0,1 2,0 0,-1 z" fill="currentColor" fill-opacity="1" fill-rule="evenodd" stroke="none" visibility="visible" display="inline" overflow="visible"></path></g></g></svg></g><line x1="41" y1="1" x2="41" y2="28" stroke="#fe4e01" stroke-linecap="round"></line><path fill="#fe4e01" fill-rule="nonzero" d="M2.81 16.97L0.10 16.97Q0 16.97 0 16.85L0 16.85L0.02 0.36Q0.02 0.26 0.14 0.26L0.14 0.26L2.81 0.26Q2.93 0.26 2.93 0.36L2.93 0.36L2.90 6.89L6.50 6.89L6.50 0.36Q6.50 0.26 6.60 0.26L6.60 0.26L9.26 0.26Q9.38 0.26 9.38 0.36L9.38 0.36L9.43 16.85Q9.43 16.97 9.31 16.97L9.31 16.97L6.62 16.97Q6.50 16.97 6.50 16.85L6.50 16.85L6.50 9.79L2.90 9.79L2.90 16.85Q2.90 16.97 2.81 16.97L2.81 16.97ZM10.58 16.85L10.58 16.85L13.56 0.36Q13.58 0.26 13.68 0.26L13.68 0.26L17.16 0.26Q17.26 0.26 17.28 0.36L17.28 0.36L20.14 16.85Q20.16 16.97 20.04 16.97L20.04 16.97L17.38 16.97Q17.28 16.97 17.26 16.85L17.26 16.85L16.99 15.10L13.73 15.10L13.46 16.85Q13.44 16.97 13.34 16.97L13.34 16.97L10.68 16.97Q10.58 16.97 10.58 16.85ZM15.29 5.78L14.21 12.53L16.51 12.53L15.53 5.78L15.38 4.90L15.29 5.78ZM24.46 16.97L21.74 16.97Q21.65 16.97 21.65 16.85L21.65 16.85L21.70 0.36Q21.70 0.26 21.79 0.26L21.79 0.26L26.64 0.26Q27.94 0.26 29.03 0.90Q30.12 1.54 30.77 2.60Q31.42 3.67 31.42 5.02L31.42 5.02Q31.42 5.90 31.15 6.61Q30.89 7.32 30.53 7.81Q30.17 8.30 29.88 8.54L29.88 8.54Q31.18 9.98 31.18 11.93L31.18 11.93L31.20 16.85Q31.20 16.97 31.08 16.97L31.08 16.97L28.37 16.97Q28.27 16.97 28.27 16.90L28.27 16.90L28.27 11.93Q28.27 11.06 27.66 10.43Q27.05 9.79 26.16 9.79L26.16 9.79L24.58 9.79L24.55 16.85Q24.55 16.97 24.46 16.97L24.46 16.97ZM24.58 3.14L24.58 6.91L26.64 6.91Q27.38 6.91 27.96 6.36Q28.54 5.81 28.54 5.02L28.54 5.02Q28.54 4.25 27.97 3.70Q27.41 3.14 26.64 3.14L26.64 3.14L24.58 3.14ZM37.63 16.94L33.34 16.97Q33.22 16.97 33.22 16.85L33.22 16.85L33.26 0.36Q33.26 0.26 33.36 0.26L33.36 0.26L37.85 0.24Q39.17 0.22 40.26 0.86Q41.35 1.51 42 2.60Q42.65 3.70 42.65 5.02L42.65 5.02L42.65 11.90Q42.65 13.30 41.98 14.44Q41.30 15.58 40.18 16.25Q39.05 16.92 37.63 16.94L37.63 16.94ZM36.17 3.14L36.14 14.02L37.63 14.02Q38.52 14.02 39.13 13.39Q39.74 12.77 39.74 11.90L39.74 11.90L39.74 4.99Q39.74 4.22 39.18 3.66Q38.62 3.10 37.85 3.12L37.85 3.12L36.17 3.14ZM49.18 16.97L46.27 16.97Q46.18 16.97 46.15 16.85L46.15 16.85L43.32 0.36Q43.30 0.26 43.39 0.26L43.39 0.26L46.08 0.26Q46.18 0.26 46.20 0.36L46.20 0.36L47.74 11.21L49.32 0.36Q49.34 0.26 49.46 0.26L49.46 0.26L51.62 0.26Q51.72 0.26 51.74 0.36L51.74 0.36L53.30 11.21L54.86 0.36Q54.89 0.26 54.98 0.26L54.98 0.26L57.65 0.26Q57.77 0.26 57.74 0.36L57.74 0.36L54.89 16.85Q54.86 16.90 54.82 16.93Q54.77 16.97 54.77 16.97L54.77 16.97L51.86 16.97Q51.79 16.97 51.74 16.85L51.74 16.85L50.52 8.23L49.30 16.85Q49.27 16.97 49.18 16.97L49.18 16.97ZM57.34 16.85L57.34 16.85L60.31 0.36Q60.34 0.26 60.43 0.26L60.43 0.26L63.91 0.26Q64.01 0.26 64.03 0.36L64.03 0.36L66.89 16.85Q66.91 16.97 66.79 16.97L66.79 16.97L64.13 16.97Q64.03 16.97 64.01 16.85L64.01 16.85L63.74 15.10L60.48 15.10L60.22 16.85Q60.19 16.97 60.10 16.97L60.10 16.97L57.43 16.97Q57.34 16.97 57.34 16.85ZM62.04 5.78L60.96 12.53L63.26 12.53L62.28 5.78L62.14 4.90L62.04 5.78ZM71.21 16.97L68.50 16.97Q68.40 16.97 68.40 16.85L68.40 16.85L68.45 0.36Q68.45 0.26 68.54 0.26L68.54 0.26L73.39 0.26Q74.69 0.26 75.78 0.90Q76.87 1.54 77.52 2.60Q78.17 3.67 78.17 5.02L78.17 5.02Q78.17 5.90 77.90 6.61Q77.64 7.32 77.28 7.81Q76.92 8.30 76.63 8.54L76.63 8.54Q77.93 9.98 77.93 11.93L77.93 11.93L77.95 16.85Q77.95 16.97 77.83 16.97L77.83 16.97L75.12 16.97Q75.02 16.97 75.02 16.90L75.02 16.90L75.02 11.93Q75.02 11.06 74.41 10.43Q73.80 9.79 72.91 9.79L72.91 9.79L71.33 9.79L71.30 16.85Q71.30 16.97 71.21 16.97L71.21 16.97ZM71.33 3.14L71.33 6.91L73.39 6.91Q74.14 6.91 74.71 6.36Q75.29 5.81 75.29 5.02L75.29 5.02Q75.29 4.25 74.72 3.70Q74.16 3.14 73.39 3.14L73.39 3.14L71.33 3.14ZM87.82 16.97L80.06 16.97Q79.97 16.97 79.97 16.85L79.97 16.85L79.99 0.36Q79.99 0.26 80.09 0.26L80.09 0.26L87.79 0.26Q87.89 0.26 87.89 0.38L87.89 0.38L87.89 3.07Q87.89 3.17 87.79 3.17L87.79 3.17L82.87 3.17L82.87 6.91L87.79 6.91Q87.89 6.91 87.89 7.01L87.89 7.01L87.91 9.72Q87.91 9.82 87.82 9.82L87.82 9.82L82.87 9.82L82.87 14.02L87.82 14.02Q87.91 14.02 87.91 14.14L87.91 14.14L87.91 16.87Q87.91 16.97 87.82 16.97L87.82 16.97ZM94.87 10.03L90.24 10.03Q90.12 10.03 90.12 9.94L90.12 9.94L90.12 7.32Q90.12 7.22 90.24 7.22L90.24 7.22L94.87 7.22Q94.99 7.22 94.99 7.32L94.99 7.32L94.99 9.94Q94.99 10.03 94.87 10.03L94.87 10.03ZM95.78 16.85L95.78 16.85L98.76 0.36Q98.78 0.26 98.88 0.26L98.88 0.26L102.36 0.26Q102.46 0.26 102.48 0.36L102.48 0.36L105.34 16.85Q105.36 16.97 105.24 16.97L105.24 16.97L102.58 16.97Q102.48 16.97 102.46 16.85L102.46 16.85L102.19 15.10L98.93 15.10L98.66 16.85Q98.64 16.97 98.54 16.97L98.54 16.97L95.88 16.97Q95.78 16.97 95.78 16.85ZM100.49 5.78L99.41 12.53L101.71 12.53L100.73 5.78L100.58 4.90L100.49 5.78ZM110.76 17.21L110.76 17.21Q109.44 17.21 108.37 16.55Q107.30 15.89 106.68 14.78Q106.06 13.68 106.06 12.31L106.06 12.31L106.08 4.82Q106.08 3.50 106.69 2.41Q107.30 1.32 108.37 0.66Q109.44 0 110.76 0L110.76 0Q112.08 0 113.14 0.65Q114.19 1.30 114.82 2.39Q115.44 3.48 115.44 4.82L115.44 4.82L115.44 5.93Q115.44 6.02 115.34 6.02L115.34 6.02L112.66 6.02Q112.56 6.02 112.56 5.93L112.56 5.93L112.56 4.82Q112.56 4.03 112.04 3.46Q111.53 2.88 110.76 2.88L110.76 2.88Q109.90 2.88 109.44 3.47Q108.98 4.06 108.98 4.82L108.98 4.82L108.98 12.31Q108.98 13.20 109.50 13.75Q110.02 14.30 110.76 14.30L110.76 14.30Q111.53 14.30 112.04 13.69Q112.56 13.08 112.56 12.31L112.56 12.31L112.56 11.21Q112.56 11.11 112.66 11.11L112.66 11.11L115.37 11.11Q115.46 11.11 115.46 11.21L115.46 11.21L115.46 12.31Q115.46 13.68 114.83 14.78Q114.19 15.89 113.14 16.55Q112.08 17.21 110.76 17.21ZM122.02 16.97L119.30 16.97Q119.21 16.97 119.21 16.85L119.21 16.85L119.21 3.17L116.09 3.17Q115.97 3.17 115.97 3.05L115.97 3.05L115.99 0.36Q115.99 0.26 116.09 0.26L116.09 0.26L125.21 0.26Q125.33 0.26 125.33 0.36L125.33 0.36L125.33 3.05Q125.33 3.17 125.23 3.17L125.23 3.17L122.09 3.17L122.11 16.85Q122.11 16.97 122.02 16.97L122.02 16.97ZM130.92 17.21L130.92 17.21Q129.65 17.21 128.57 16.55Q127.49 15.89 126.85 14.78Q126.22 13.68 126.22 12.36L126.22 12.36L126.26 0.36Q126.26 0.26 126.36 0.26L126.36 0.26L129.05 0.26Q129.14 0.26 129.14 0.36L129.14 0.36L129.14 12.36Q129.14 13.18 129.66 13.74Q130.18 14.30 130.92 14.30L130.92 14.30Q131.69 14.30 132.20 13.74Q132.72 13.18 132.72 12.36L132.72 12.36L132.72 0.36Q132.72 0.26 132.82 0.26L132.82 0.26L135.50 0.26Q135.60 0.26 135.60 0.36L135.60 0.36L135.65 12.36Q135.65 13.70 135.01 14.81Q134.38 15.91 133.31 16.56Q132.24 17.21 130.92 17.21Z" transform="translate(51, 6.016)"></path></svg>